<svg width="100" height="90" viewBox="0 0 100 90" fill="none" xmlns="http://www.w3.org/2000/svg">
                            <path d="M100 79.0986H0V79.1566H100V79.0986Z" fill="#E0E0E0"/>
                            <path d="M34.4661 80.4872H32.3701V80.5452H34.4661V80.4872Z" fill="#E0E0E0"/>
                            <path d="M93.2394 81.9951H85.6514V82.0531H93.2394V81.9951Z" fill="#E0E0E0"/>
                            <path d="M69.5998 80.5146H63.4678V80.5726H69.5998V80.5146Z" fill="#E0E0E0"/>
                            <path d="M48.4952 81.825H37.8232V81.883H48.4952V81.825Z" fill="#E0E0E0"/>
                            <path d="M27.9346 81.4616H24.2666V81.5196H27.9346V81.4616Z" fill="#E0E0E0"/>
                            <path d="M84.6838 81.995H81.6318V82.053H84.6838V81.995Z" fill="#E0E0E0"/>
                            <path d="M23.1001 81.4342H12.9861V81.4922H23.1001V81.4342Z" fill="#E0E0E0"/>
                            <path d="M47.4016 68.8454H8.78355C8.48102 68.8448 8.19107 68.7062 7.97733 68.4601C7.7636 68.214 7.64355 67.8805 7.64355 67.5327V5.13411C7.64619 4.78836 7.76739 4.45777 7.98084 4.21414C8.19429 3.97052 8.48275 3.83353 8.78355 3.83294H47.4016C47.7044 3.83294 47.9949 3.97124 48.2091 4.21741C48.4232 4.46358 48.5436 4.79746 48.5436 5.1456V67.5327C48.5436 67.8809 48.4232 68.2147 48.2091 68.4609C47.9949 68.7071 47.7044 68.8454 47.4016 68.8454ZM8.78355 3.87892C8.49428 3.87953 8.21704 4.01204 8.01269 4.24737C7.80833 4.48269 7.69355 4.80161 7.69355 5.13411V67.5327C7.69355 67.8652 7.80833 68.1841 8.01269 68.4195C8.21704 68.6548 8.49428 68.7873 8.78355 68.7879H47.4016C47.691 68.7873 47.9685 68.6549 48.1731 68.4196C48.3778 68.1843 48.493 67.8654 48.4936 67.5327V5.13411C48.493 4.8014 48.3778 4.48249 48.1731 4.24722C47.9685 4.01196 47.691 3.87952 47.4016 3.87892H8.78355Z" fill="#E0E0E0"/>
                            <path d="M90.6626 68.8454H52.0426C51.7399 68.8448 51.4498 68.7063 51.2357 68.4603C51.0217 68.2143 50.9012 67.8807 50.9006 67.5328V5.13417C50.9038 4.78821 51.0254 4.45762 51.2392 4.21406C51.453 3.9705 51.7416 3.83359 52.0426 3.833H90.6626C90.9631 3.8342 91.251 3.97145 91.4641 4.21501C91.6771 4.45857 91.798 4.78882 91.8006 5.13417V67.5328C91.8006 67.8801 91.6809 68.2133 91.4676 68.4593C91.2543 68.7054 90.9648 68.8442 90.6626 68.8454ZM52.0426 3.87898C51.7532 3.87959 51.4757 4.01202 51.2711 4.24729C51.0664 4.48255 50.9512 4.80146 50.9506 5.13417V67.5328C50.9512 67.8655 51.0664 68.1844 51.2711 68.4197C51.4757 68.6549 51.7532 68.7874 52.0426 68.788H90.6626C90.9521 68.7874 91.2295 68.6549 91.4342 68.4197C91.6389 68.1844 91.7541 67.8655 91.7546 67.5328V5.13417C91.7541 4.80146 91.6389 4.48255 91.4342 4.24729C91.2295 4.01202 90.9521 3.87959 90.6626 3.87898H52.0426Z" fill="#E0E0E0"/>
                            <path d="M38.734 18.3412H14.822V79.126H38.734V18.3412Z" fill="#E6E6E6"/>
                            <path d="M38.7328 18.3412H15.9548V79.126H38.7328V18.3412Z" fill="#F5F5F5"/>
                            <path d="M37.5303 77.749V19.7229H17.1523L17.1523 77.749H37.5303Z" fill="#F0F0F0"/>
                            <path d="M37.5303 77.7467V19.7206H37.2183V77.7467H37.5303Z" fill="#E6E6E6"/>
                            <path d="M34.8111 47.3969C35.3755 47.3969 35.8331 46.871 35.8331 46.2222C35.8331 45.5734 35.3755 45.0475 34.8111 45.0475C34.2466 45.0475 33.7891 45.5734 33.7891 46.2222C33.7891 46.871 34.2466 47.3969 34.8111 47.3969Z" fill="#E6E6E6"/>
                            <path d="M35.2124 47.1532C35.7769 47.1532 36.2344 46.6272 36.2344 45.9785C36.2344 45.3297 35.7769 44.8037 35.2124 44.8037C34.648 44.8037 34.1904 45.3297 34.1904 45.9785C34.1904 46.6272 34.648 47.1532 35.2124 47.1532Z" fill="#FAFAFA"/>
                            <path d="M89.0483 11.8653H72.8623V46.8129H89.0483V11.8653Z" fill="#E0E0E0"/>
                            <path d="M89.7429 11.8653H73.5569V46.8129H89.7429V11.8653Z" fill="#F5F5F5"/>
                            <path d="M88.5 45.275V13.4033L74.796 13.4033V45.275H88.5Z" fill="#FAFAFA"/>
                            <path d="M88.5029 45.275V13.4033H87.9809V45.275H88.5029Z" fill="#E0E0E0"/>
                            <path d="M89.2313 36.0449H74.0713V38.1093H89.2313V36.0449Z" fill="#F5F5F5"/>
                            <path d="M69.0922 11.8652H52.9062V46.8128H69.0922V11.8652Z" fill="#E0E0E0"/>
                            <path d="M69.7819 11.8653H53.5959V46.8129H69.7819V11.8653Z" fill="#F5F5F5"/>
                            <path d="M68.542 45.2725V13.4008L54.838 13.4008V45.2725H68.542Z" fill="#FAFAFA"/>
                            <path d="M68.542 45.275V13.4033H68.02V45.275H68.542Z" fill="#E0E0E0"/>
                            <path d="M69.2704 36.0449H54.1104V38.1093H69.2704V36.0449Z" fill="#F5F5F5"/>
                            <path d="M31.8981 15.6675L31.7161 15.8767H22.7861V11.8652L31.8981 15.6675Z" fill="#E0E0E0"/>
                            <path d="M23.1321 15.6675H31.8981L31.5541 11.8652H22.7861L23.1321 15.6675Z" fill="#F5F5F5"/>
                            <path d="M41.055 48.3946H44.835V44.0497H41.055V48.3946Z" fill="#EBEBEB"/>
                            <path d="M41.0567 44.0497H40.9287V48.3946H41.0567V44.0497Z" fill="#E0E0E0"/>
                            <path d="M44.4871 47.5671L44.3511 47.7234H41.5391V44.7441L44.4871 47.5671Z" fill="#E0E0E0"/>
                            <path d="M41.7951 47.5671H44.4871L44.2331 44.7441H41.5391L41.7951 47.5671Z" fill="#FAFAFA"/>
                            <path d="M46.4561 54.0889L48.3561 52.1164L50.2541 54.0889V79.1559H46.4561V54.0889Z" fill="#F0F0F0"/>
                            <path d="M53.0381 54.0889L54.9361 52.1164L56.8361 54.0889V79.1559H53.0381V54.0889Z" fill="#F0F0F0"/>
                            <path d="M59.6201 54.0889L61.5201 52.1164L63.4181 54.0889V79.1559H59.6201V54.0889Z" fill="#F0F0F0"/>
                            <path d="M66.2002 54.0889L68.0982 52.1164L69.9962 54.0889V79.1559H66.2002V54.0889Z" fill="#F0F0F0"/>
                            <path d="M72.7822 54.0889L74.6822 52.1164L76.5802 54.0889V79.1559H72.7822V54.0889Z" fill="#F0F0F0"/>
                            <path d="M79.3643 54.0889L81.2623 52.1164L83.1603 54.0889V79.1559H79.3643V54.0889Z" fill="#F0F0F0"/>
                            <path d="M85.9463 54.0889L87.8463 52.1164L89.7443 54.0889V79.1559H85.9463V54.0889Z" fill="#F0F0F0"/>
                            <path d="M48.3548 58.8475L87.8408 58.8475V57.7348L48.3548 57.7348V58.8475Z" fill="#F0F0F0"/>
                            <path d="M48.3548 72.0157H87.8408V70.903H48.3548V72.0157Z" fill="#F0F0F0"/>
                            <path d="M50.0016 89.4801C71.4181 89.4801 88.7796 88.315 88.7796 86.8777C88.7796 85.4405 71.4181 84.2754 50.0016 84.2754C28.5851 84.2754 11.2236 85.4405 11.2236 86.8777C11.2236 88.315 28.5851 89.4801 50.0016 89.4801Z" fill="#F5F5F5"/>
                            <path d="M70.3871 34.8197L70.4931 34.9231L70.6191 35.0381C70.7031 35.1162 70.7931 35.1944 70.8811 35.268C71.0611 35.4174 71.2451 35.5645 71.4371 35.6979C71.8177 35.9746 72.2139 36.2219 72.6231 36.4381C73.0345 36.6503 73.4558 36.836 73.8851 36.9944C74.1031 37.0611 74.3171 37.1439 74.5391 37.1944L74.8711 37.2772H74.9111C74.9111 37.2772 74.9111 37.2772 74.9011 37.2772C74.8811 37.3025 74.8911 37.2772 74.9011 37.2772C74.9419 37.2269 74.9744 37.1685 74.9971 37.1048C75.0744 36.9021 75.1288 36.6888 75.1591 36.4703C75.2302 35.957 75.267 35.4383 75.2691 34.9185C75.2691 34.3829 75.2691 33.8381 75.2411 33.2932C75.2131 32.7484 75.1831 32.1944 75.1431 31.6541L75.8431 31.5093C76.0853 32.6155 76.2485 33.7427 76.3311 34.8795C76.3781 35.4713 76.3781 36.0669 76.3311 36.6588C76.3034 36.9936 76.2402 37.3232 76.1431 37.6404C76.0808 37.8379 75.9924 38.0232 75.8811 38.1898C75.7363 38.4099 75.539 38.5768 75.3131 38.6703C75.1401 38.741 74.9559 38.7677 74.7731 38.7485L74.6911 38.737H74.6431L74.2611 38.6657C74.0051 38.622 73.7551 38.5439 73.5011 38.4818C73.0001 38.3352 72.5093 38.1454 72.0331 37.914C71.5563 37.6812 71.0951 37.4084 70.6531 37.0979C70.4311 36.9439 70.2171 36.7737 70.0051 36.5967C69.8991 36.5071 69.7951 36.4151 69.6911 36.3186C69.6391 36.2703 69.5891 36.2197 69.5371 36.1668C69.4851 36.114 69.4391 36.068 69.3711 35.9944L70.3871 34.8197Z" fill="#9F5B53"/>
                            <path d="M68.3822 33.8541C70.4082 33.5369 72.0442 35.4197 72.0442 35.4197L70.5322 38.376C70.5322 38.376 68.2002 37.2473 67.8482 36.2473C67.4842 35.2128 67.3422 34.015 68.3822 33.8541Z" fill="#407BFF"/>
                            <path opacity="0.3" d="M68.3822 33.8541C70.4082 33.5369 72.0442 35.4197 72.0442 35.4197L70.5322 38.376C70.5322 38.376 68.2002 37.2473 67.8482 36.2473C67.4842 35.2128 67.3422 34.015 68.3822 33.8541Z" fill="black"/>
                            <path d="M75.3327 32.0883L74.2227 30.9113L75.8687 30.1734C75.8687 30.1734 76.3907 31.1849 75.9687 32.1964L75.3327 32.0883Z" fill="#9F5B53"/>
                            <path d="M74 29.2244L75.31 28.937L75.87 30.1738L74.224 30.9118L74 29.2244Z" fill="#9F5B53"/>
                            <path d="M61.2002 85.1148L62.8322 85.2987L64.5322 80.832L62.9002 80.6481L61.2002 85.1148Z" fill="#9F5B53"/>
                            <path d="M50.6855 78.5125L51.9115 79.8367L54.5575 76.4918L53.3315 75.1699L50.6855 78.5125Z" fill="#9F5B53"/>
                            <path d="M52.4774 79.2019L51.5554 77.2939C51.5401 77.2608 51.5147 77.2353 51.4842 77.2222C51.4536 77.2091 51.4199 77.2092 51.3894 77.2226L49.9714 77.8433C49.9361 77.8601 49.9044 77.8853 49.8782 77.9173C49.852 77.9492 49.832 77.9872 49.8195 78.0287C49.807 78.0702 49.8023 78.1143 49.8058 78.158C49.8092 78.2017 49.8207 78.2441 49.8394 78.2824C50.1714 78.9422 50.3594 79.241 50.7634 80.0801C51.0134 80.5951 51.4994 81.779 51.8434 82.4917C52.1874 83.2043 52.8194 82.8526 52.7314 82.5192C52.3314 81.0296 52.4114 80.1997 52.5314 79.5422C52.5484 79.425 52.5294 79.3047 52.4774 79.2019Z" fill="#263238"/>
                            <path d="M63.0489 84.7193H61.0489C61.0128 84.7198 60.978 84.7338 60.9495 84.7591C60.921 84.7844 60.9004 84.8196 60.8908 84.8595L60.4549 86.6825C60.4441 86.7257 60.4424 86.7711 60.4499 86.8151C60.4573 86.8592 60.4736 86.9005 60.4976 86.9359C60.5216 86.9713 60.5525 86.9997 60.5878 87.0188C60.6231 87.0379 60.6618 87.0471 60.7009 87.0458C61.4069 87.0458 61.7408 87.0458 62.6228 87.0458H65.3169C66.0508 87.0458 66.2029 86.1952 65.9009 86.1262C64.5409 85.7814 63.7569 85.3032 63.3389 84.8503C63.2608 84.7647 63.1567 84.7177 63.0489 84.7193Z" fill="#263238"/>
                            <path d="M64.5289 80.8342L63.6549 83.1353H61.9509L62.8969 80.6502L64.5289 80.8342Z" fill="#8A4743"/>
                            <path d="M53.3279 75.1699L54.5559 76.4941L53.1899 78.216L51.9639 76.8918L53.3279 75.1699Z" fill="#8A4743"/>
                            <path d="M70.1157 34.0702C70.1157 34.0702 70.8477 34.4426 68.3877 45.6382L61.5497 44.9485C61.9057 41.7599 62.0577 39.7875 61.2197 33.0908C62.1947 32.96 63.1765 32.9101 64.1577 32.9414C65.1977 32.9618 66.235 33.0679 67.2617 33.2587C68.2243 33.4741 69.1768 33.7449 70.1157 34.0702Z" fill="#407BFF"/>
                            <path opacity="0.3" d="M70.1157 34.0702C70.1157 34.0702 70.8477 34.4426 68.3877 45.6382L61.5497 44.9485C61.9057 41.7599 62.0577 39.7875 61.2197 33.0908C62.1947 32.96 63.1765 32.9101 64.1577 32.9414C65.1977 32.9618 66.235 33.0679 67.2617 33.2587C68.2243 33.4741 69.1768 33.7449 70.1157 34.0702Z" fill="black"/>
                            <path d="M64.1577 32.9507C64.1577 32.9507 63.7697 32.9024 63.3117 32.9024C63.0357 33.3921 63.8737 35.2519 65.3537 36.6496C65.6853 36.0067 66.1062 35.4305 66.5997 34.9439L64.1577 32.9507Z" fill="#FAFAFA"/>
                            <path d="M67.2616 33.2587C67.4595 33.273 67.6557 33.3091 67.8476 33.3667C68.1236 33.8564 68.6576 35.5875 67.8476 36.6495C67.516 36.0066 67.0951 35.4304 66.6016 34.9438L67.2616 33.2587Z" fill="#FAFAFA"/>
                            <path d="M66.8213 36.1901C66.8213 36.3304 66.7873 36.4455 66.7293 36.4501C66.6713 36.4547 66.6213 36.3419 66.6133 36.2039C66.6053 36.0658 66.6473 35.9461 66.7053 35.9438C66.7633 35.9415 66.8153 36.0497 66.8213 36.1901Z" fill="#FAFAFA"/>
                            <path d="M66.7989 37.2546C66.7989 37.3927 66.7469 37.5054 66.6889 37.5054C66.6309 37.5054 66.5889 37.3881 66.5909 37.2477C66.5929 37.1073 66.6429 36.9968 66.7009 36.9968C66.7589 36.9968 66.8089 37.1142 66.7989 37.2546Z" fill="#FAFAFA"/>
                            <path d="M64.7689 28.9621C64.8789 30.13 64.9149 32.2541 64.1689 32.9507C64.901 33.7334 65.7186 34.4034 66.6009 34.9438C67.7889 34.0013 67.2629 33.2588 67.2629 33.2588C66.1729 32.8427 66.2729 31.8955 66.5329 31.0219L64.7689 28.9621Z" fill="#9F5B53"/>
                            <path d="M65.4878 29.8105L66.5318 31.0289C66.4687 31.2315 66.4205 31.4399 66.3878 31.6519C65.9678 31.5392 65.3598 31.0381 65.3538 30.5208C65.3607 30.2767 65.4061 30.036 65.4878 29.8105Z" fill="#8A4743"/>
                            <path d="M66.7666 25.5023C66.7666 25.5023 67.8746 26.7529 68.1186 27.3621C68.7906 27.6494 68.6086 25.6149 68.0986 24.4379C67.2026 25.3551 66.7666 25.5023 66.7666 25.5023Z" fill="#263238"/>
                            <path d="M63.8744 27.1371C64.2984 29.0037 64.4424 29.8038 65.4384 30.5854C66.9344 31.7601 68.8384 30.7532 68.9044 28.7808C68.9684 27.0037 68.2644 24.252 66.5284 23.8657C66.146 23.7776 65.7503 23.8034 65.379 23.9407C65.0077 24.078 64.6731 24.3222 64.4071 24.65C64.1411 24.9779 63.9525 25.3786 63.8593 25.8139C63.766 26.2492 63.7712 26.7047 63.8744 27.1371Z" fill="#9F5B53"/>
                            <path d="M67.5553 24.7528C68.2993 24.8792 69.0413 24.0792 67.8373 23.2217C68.2233 23.1758 68.6373 21.6125 67.2373 21.6976C67.1693 20.9551 65.7833 20.293 65.0373 21.4677C64.1753 20.8148 62.9513 21.4815 63.2253 22.4953C62.2353 22.5666 61.7193 24.1206 62.5373 24.3735C61.5533 25.0632 61.3813 26.1781 62.3373 26.3804C62.4693 27.6701 64.6673 27.0931 64.4973 25.8931C64.8973 26.139 66.1533 25.6103 65.8973 24.9735C66.3033 25.5735 67.5553 25.2999 67.5553 24.7528Z" fill="#263238"/>
                            <path d="M62.999 26.3943C62.999 26.3943 63.815 27.9116 63.923 28.5713C64.523 29.0311 64.765 27.0104 64.523 25.7276C63.449 26.3621 62.999 26.3943 62.999 26.3943Z" fill="#263238"/>
                            <path d="M63.7409 28.822C63.8927 29.1518 64.1513 29.3996 64.4609 29.5117C64.8729 29.6519 65.0869 29.2312 64.9809 28.7807C64.8829 28.3738 64.5529 27.8105 64.1369 27.8611C64.0459 27.8753 63.9594 27.9154 63.8852 27.9778C63.8111 28.0401 63.7516 28.1228 63.7123 28.2182C63.673 28.3136 63.655 28.4188 63.66 28.5243C63.665 28.6297 63.6928 28.7321 63.7409 28.822Z" fill="#9F5B53"/>
                            <path d="M68.3856 45.6382C68.3856 45.6382 70.6996 57.4016 69.1536 65.6936C68.1196 71.2478 64.3896 82.4755 64.3896 82.4755L61.4736 82.3881C61.4736 82.3881 64.2976 70.6133 64.8736 65.9833C65.8736 58.0614 63.3696 45.1462 63.3696 45.1462L68.3856 45.6382Z" fill="#407BFF"/>
                            <path opacity="0.6" d="M68.3856 45.6382C68.3856 45.6382 70.6996 57.4016 69.1536 65.6936C68.1196 71.2478 64.3896 82.4755 64.3896 82.4755L61.4736 82.3881C61.4736 82.3881 64.2976 70.6133 64.8736 65.9833C65.8736 58.0614 63.3696 45.1462 63.3696 45.1462L68.3856 45.6382Z" fill="#FAFAFA"/>
                            <path d="M65.7197 48.0132L64.2617 50.6569C64.7007 53.7918 64.9792 56.9536 65.0957 60.126C67.1457 55.9053 66.1757 50.2477 65.7197 48.0132Z" fill="#407BFF"/>
                            <path opacity="0.4" d="M65.7197 48.0132L64.2617 50.6569C64.7007 53.7918 64.9792 56.9536 65.0957 60.126C67.1457 55.9053 66.1757 50.2477 65.7197 48.0132Z" fill="#FAFAFA"/>
                            <path d="M64.8042 82.6412L61.2002 82.5377L61.4102 81.2641L65.3422 81.4779L64.8042 82.6412Z" fill="#407BFF"/>
                            <path opacity="0.3" d="M64.8042 82.6412L61.2002 82.5377L61.4102 81.2641L65.3422 81.4779L64.8042 82.6412Z" fill="black"/>
                            <path d="M66.8909 45.512C66.8909 45.512 65.5349 57.988 62.5929 64.7973C60.2169 70.2986 53.8749 78.1309 53.8749 78.1309L52.2549 76.2113C52.2549 76.2113 56.5369 67.7054 58.3029 64.0456C62.6329 55.08 59.1029 48.2477 61.5489 44.9649L66.8909 45.512Z" fill="#407BFF"/>
                            <path opacity="0.6" d="M66.8909 45.512C66.8909 45.512 65.5349 57.988 62.5929 64.7973C60.2169 70.2986 53.8749 78.1309 53.8749 78.1309L52.2549 76.2113C52.2549 76.2113 56.5369 67.7054 58.3029 64.0456C62.6329 55.08 59.1029 48.2477 61.5489 44.9649L66.8909 45.512Z" fill="#FAFAFA"/>
                            <path d="M54.0363 78.3859L51.9443 76.0433L52.6383 74.9559L54.9183 77.6663L54.0363 78.3859Z" fill="#407BFF"/>
                            <path opacity="0.3" d="M54.0363 78.3859L51.9443 76.0433L52.6383 74.9559L54.9183 77.6663L54.0363 78.3859Z" fill="black"/>
                            <path d="M61.4806 44.4864L61.1186 45.1577C61.0906 45.2105 61.1446 45.2726 61.2226 45.2795L68.3926 45.9921C68.4546 45.9921 68.5086 45.9692 68.5166 45.9255L68.6306 45.2358C68.6306 45.1875 68.5886 45.1393 68.5206 45.1324L61.5966 44.4427C61.5756 44.4381 61.554 44.4397 61.5337 44.4473C61.5134 44.455 61.4951 44.4684 61.4806 44.4864Z" fill="#263238"/>
                            <path d="M62.345 45.4681L62.159 45.4497C62.121 45.4497 62.095 45.4221 62.099 45.3945L62.255 44.4887C62.255 44.4635 62.295 44.4451 62.331 44.4474L62.517 44.4658C62.553 44.4658 62.579 44.4956 62.575 44.5209L62.419 45.4267C62.415 45.4543 62.381 45.4727 62.345 45.4681Z" fill="#407BFF"/>
                            <path opacity="0.6" d="M62.345 45.4681L62.159 45.4497C62.121 45.4497 62.095 45.4221 62.099 45.3945L62.255 44.4887C62.255 44.4635 62.295 44.4451 62.331 44.4474L62.517 44.4658C62.553 44.4658 62.579 44.4956 62.575 44.5209L62.419 45.4267C62.415 45.4543 62.381 45.4727 62.345 45.4681Z" fill="#FAFAFA"/>
                            <path d="M67.8704 46.0175L67.6844 45.9991C67.6484 45.9991 67.6224 45.9715 67.6264 45.944L67.7824 45.0382C67.7824 45.0129 67.8204 44.9945 67.8564 44.9968L68.0424 45.0152C68.0804 45.0152 68.1064 45.0451 68.1024 45.0704L67.9464 45.9761C67.9393 45.9916 67.9281 46.004 67.9144 46.0114C67.9007 46.0189 67.8852 46.021 67.8704 46.0175Z" fill="#407BFF"/>
                            <path opacity="0.6" d="M67.8704 46.0175L67.6844 45.9991C67.6484 45.9991 67.6224 45.9715 67.6264 45.944L67.7824 45.0382C67.7824 45.0129 67.8204 44.9945 67.8564 44.9968L68.0424 45.0152C68.0804 45.0152 68.1064 45.0451 68.1024 45.0704L67.9464 45.9761C67.9393 45.9916 67.9281 46.004 67.9144 46.0114C67.9007 46.0189 67.8852 46.021 67.8704 46.0175Z" fill="#FAFAFA"/>
                            <path d="M65.1055 45.7439L64.9215 45.7255C64.8835 45.7255 64.8575 45.6956 64.8615 45.6704L65.0175 44.7646C65.0175 44.737 65.0555 44.7186 65.0935 44.7232L65.2775 44.7416C65.3155 44.7416 65.3415 44.7692 65.3375 44.7968L65.1815 45.7002C65.1775 45.7278 65.1435 45.7462 65.1055 45.7439Z" fill="#407BFF"/>
                            <path opacity="0.6" d="M65.1055 45.7439L64.9215 45.7255C64.8835 45.7255 64.8575 45.6956 64.8615 45.6704L65.0175 44.7646C65.0175 44.737 65.0555 44.7186 65.0935 44.7232L65.2775 44.7416C65.3155 44.7416 65.3415 44.7692 65.3375 44.7968L65.1815 45.7002C65.1775 45.7278 65.1435 45.7462 65.1055 45.7439Z" fill="#FAFAFA"/>
                            <path d="M66.4558 27.103C66.4818 27.2572 66.5738 27.3654 66.6558 27.3447C66.7378 27.3239 66.7918 27.1859 66.7658 27.0317C66.7398 26.8775 66.6478 26.7693 66.5658 26.7877C66.4838 26.8061 66.4298 26.9488 66.4558 27.103Z" fill="#263238"/>
                            <path d="M67.9673 26.7602C67.9933 26.9144 68.0853 27.0226 68.1673 27.0042C68.2493 26.9858 68.3033 26.8431 68.2773 26.6889C68.2513 26.5347 68.1593 26.4265 68.0773 26.4588C67.9953 26.491 67.9393 26.606 67.9673 26.7602Z" fill="#263238"/>
                            <path d="M68.0381 26.4629L68.3421 26.2839C68.3421 26.2839 68.2261 26.6097 68.0381 26.4629Z" fill="#263238"/>
                            <path d="M67.6084 27.1161C67.7883 27.4389 68.0056 27.732 68.2544 27.9874C68.1957 28.059 68.1242 28.115 68.0447 28.1515C67.9653 28.1881 67.8798 28.2042 67.7944 28.1989L67.6084 27.1161Z" fill="#892B29"/>
                            <path d="M67.1796 28.9327C66.898 28.9369 66.6255 28.8176 66.4176 28.599C66.4117 28.5914 66.4084 28.5815 66.4084 28.5714C66.4084 28.5612 66.4117 28.5513 66.4176 28.5437C66.424 28.5364 66.4326 28.5323 66.4416 28.5323C66.4506 28.5323 66.4592 28.5364 66.4656 28.5437C66.5938 28.6729 66.7465 28.7658 66.9114 28.815C67.0764 28.8641 67.249 28.8682 67.4156 28.8268C67.4244 28.8248 67.4335 28.8268 67.4409 28.8324C67.4484 28.8379 67.4537 28.8467 67.4556 28.8567C67.4565 28.8616 67.4565 28.8666 67.4556 28.8714C67.4548 28.8763 67.4531 28.8809 67.4507 28.885C67.4483 28.889 67.4451 28.8925 67.4415 28.8952C67.4379 28.8978 67.4339 28.8996 67.4296 28.9005C67.3474 28.9209 67.2637 28.9316 67.1796 28.9327Z" fill="#263238"/>
                            <path d="M65.7122 26.1329C65.701 26.1358 65.6894 26.1358 65.6782 26.1329C65.6633 26.122 65.6527 26.1048 65.6486 26.0851C65.6445 26.0653 65.6472 26.0445 65.6562 26.027C65.7176 25.9023 65.8041 25.7964 65.9086 25.7183C66.013 25.6402 66.1322 25.5921 66.2562 25.5782C66.2736 25.5782 66.2903 25.5858 66.3029 25.5995C66.3156 25.6132 66.3232 25.6319 66.3242 25.6519C66.3245 25.6618 66.323 25.6718 66.32 25.6811C66.3169 25.6904 66.3122 25.699 66.3063 25.7063C66.3004 25.7135 66.2932 25.7194 66.2853 25.7235C66.2774 25.7276 66.2689 25.7298 66.2602 25.7301C66.158 25.7436 66.0601 25.7845 65.9742 25.8497C65.8884 25.9149 65.8171 26.0024 65.7662 26.1053C65.7598 26.1145 65.7515 26.1219 65.7421 26.1267C65.7327 26.1315 65.7225 26.1336 65.7122 26.1329Z" fill="#263238"/>
                            <path d="M68.5524 25.8604C68.5419 25.8635 68.5309 25.8635 68.5204 25.8604C68.4309 25.7981 68.3296 25.7615 68.2251 25.754C68.1206 25.7464 68.0161 25.7679 67.9204 25.8168C67.9047 25.8258 67.8866 25.8275 67.8698 25.8215C67.853 25.8156 67.8389 25.8023 67.8304 25.7847C67.8226 25.7667 67.8211 25.7458 67.8263 25.7266C67.8315 25.7074 67.843 25.6912 67.8584 25.6814C67.9722 25.6225 68.0967 25.5958 68.2213 25.6038C68.346 25.6118 68.4671 25.6542 68.5744 25.7273C68.5821 25.7321 68.5888 25.7386 68.5943 25.7464C68.5997 25.7542 68.6038 25.7632 68.6062 25.7727C68.6086 25.7823 68.6093 25.7924 68.6083 25.8023C68.6074 25.8122 68.6047 25.8219 68.6004 25.8306C68.5948 25.8393 68.5876 25.8465 68.5793 25.8517C68.571 25.8568 68.5619 25.8598 68.5524 25.8604Z" fill="#263238"/>
                            <path d="M61.7398 35.914C61.4619 36.5515 61.1534 37.1709 60.8158 37.7692C60.4798 38.3623 60.1238 38.937 59.7418 39.4956C59.355 40.0531 58.9396 40.5836 58.4978 41.0842C58.2718 41.3324 58.0458 41.5807 57.8018 41.8106L57.6218 41.9876C57.5373 42.0673 57.4477 42.1395 57.3538 42.2037C57.1232 42.3599 56.8594 42.4395 56.5918 42.4336C56.3195 42.4206 56.0569 42.3141 55.8378 42.1279C55.6683 41.9862 55.5185 41.8157 55.3938 41.6221C55.1896 41.3011 55.0197 40.953 54.8878 40.5853C54.6492 39.921 54.4612 39.2341 54.3258 38.5324C54.0597 37.175 53.8838 35.7963 53.7998 34.4082L54.5058 34.3071C54.6198 34.9599 54.7418 35.6266 54.8838 36.2795C55.0258 36.9324 55.1698 37.583 55.3438 38.2129C55.5059 38.8324 55.7064 39.4378 55.9438 40.0244C56.052 40.2829 56.1863 40.526 56.3438 40.7485C56.4014 40.8264 56.4688 40.8938 56.5438 40.9485C56.5998 40.9853 56.6178 40.9784 56.6198 40.9738C56.6486 40.9639 56.6756 40.9484 56.6998 40.9278C56.7258 40.9072 56.7578 40.8773 56.7918 40.8451L56.9438 40.6796C57.1438 40.4658 57.3438 40.2313 57.5438 39.9899C57.9278 39.514 58.2838 39.0037 58.6318 38.4864C58.9798 37.9692 59.2978 37.4175 59.6018 36.8588C59.7558 36.583 59.9038 36.3002 60.0498 36.0151C60.1958 35.7301 60.3338 35.4358 60.4498 35.1691L61.7398 35.914Z" fill="#9F5B53"/>
                            <path d="M54.8173 34.5898L54.6393 32.8679L53.1553 33.9668C53.1553 33.9668 53.6413 34.8863 54.3133 35.1346L54.8173 34.5898Z" fill="#9F5B53"/>
                            <path d="M54.0911 32.169L53.1211 33.2218L53.1571 33.9667L54.6411 32.8678L54.0911 32.169Z" fill="#9F5B53"/>
                            <path d="M61.22 33.1002C60.382 33.2726 59.208 36.0359 59.208 36.0359L61.322 38.2313C61.322 38.2313 63.002 36.1255 62.912 34.8703C62.836 33.8037 62.288 32.8841 61.22 33.1002Z" fill="#407BFF"/>
                            <path opacity="0.3" d="M61.22 33.1002C60.382 33.2726 59.208 36.0359 59.208 36.0359L61.322 38.2313C61.322 38.2313 63.002 36.1255 62.912 34.8703C62.836 33.8037 62.288 32.8841 61.22 33.1002Z" fill="black"/>
                            <path d="M52.7976 80.2282C52.7757 80.2283 52.754 80.2236 52.7336 80.2144C52.5336 80.1385 52.4016 79.7104 52.3336 79.4619C52.3325 79.4547 52.333 79.4473 52.3351 79.4404C52.3372 79.4336 52.3408 79.4275 52.3456 79.4227C52.351 79.4189 52.3573 79.4168 52.3636 79.4168C52.37 79.4168 52.3762 79.4189 52.3816 79.4227C52.4436 79.4596 52.9816 79.7887 52.9956 80.0326C52.9977 80.059 52.9937 80.0855 52.9838 80.1093C52.974 80.1332 52.9587 80.1536 52.9396 80.1684C52.8991 80.2054 52.8493 80.2264 52.7976 80.2282ZM52.4276 79.5378C52.5196 79.8784 52.6396 80.1063 52.7536 80.15C52.7798 80.1585 52.8074 80.1594 52.8339 80.1525C52.8604 80.1457 52.8851 80.1314 52.9056 80.1109C52.9157 80.1037 52.9238 80.0934 52.9291 80.0812C52.9344 80.069 52.9367 80.0554 52.9356 80.0418C52.9256 79.8853 52.6116 79.6506 52.4276 79.5309V79.5378Z" fill="#407BFF"/>
                            <path d="M52.8838 79.628C52.7013 79.6271 52.5214 79.5783 52.3578 79.4853C52.3529 79.4821 52.3488 79.4774 52.346 79.4717C52.3432 79.4661 52.3417 79.4596 52.3418 79.4531C52.3418 79.4463 52.3432 79.4396 52.346 79.4335C52.3488 79.4275 52.3529 79.4224 52.3578 79.4186C52.3758 79.4071 52.7998 79.1401 53.0278 79.2322C53.0565 79.2428 53.0827 79.2607 53.1045 79.2846C53.1264 79.3085 53.1432 79.3378 53.1538 79.3703C53.1677 79.4011 53.1723 79.4364 53.1669 79.4705C53.1614 79.5047 53.1463 79.5358 53.1238 79.559C53.0521 79.6106 52.9681 79.6348 52.8838 79.628ZM52.4478 79.4531C52.6298 79.5429 52.9818 79.5981 53.0798 79.4992C53.0958 79.483 53.1138 79.4577 53.0918 79.3979C53.0846 79.3759 53.0731 79.3562 53.0582 79.3402C53.0433 79.3243 53.0253 79.3125 53.0058 79.3058C52.8518 79.2368 52.5678 79.3841 52.4478 79.4531Z" fill="#407BFF"/>
                            <path d="M63.9424 85.0923C63.7578 85.0871 63.5742 85.0601 63.3944 85.0117C63.3876 85.0103 63.3814 85.0064 63.3767 85.0005C63.3721 84.9947 63.3691 84.9874 63.3684 84.9795C63.3676 84.9716 63.3689 84.9637 63.3721 84.9567C63.3753 84.9497 63.3803 84.944 63.3864 84.9404C63.4704 84.8943 64.1984 84.51 64.3864 84.6504C64.4029 84.6637 64.416 84.6818 64.4244 84.7028C64.4328 84.7238 64.4363 84.747 64.4344 84.7701C64.4329 84.8124 64.4231 84.8539 64.4058 84.8913C64.3885 84.9288 64.3641 84.9613 64.3344 84.9864C64.2164 85.0677 64.0794 85.1047 63.9424 85.0923ZM63.5084 84.9611C63.7244 85.0071 64.1244 85.0669 64.2884 84.9242C64.3105 84.9063 64.3286 84.8825 64.3411 84.8549C64.3536 84.8273 64.3602 84.7966 64.3604 84.7654C64.3604 84.7332 64.3604 84.7217 64.3424 84.7148C64.2404 84.6343 63.8024 84.8069 63.5084 84.9611Z" fill="#407BFF"/>
                            <path d="M63.4028 85.0145C63.3956 85.0167 63.388 85.0167 63.3808 85.0145C63.376 85.0098 63.3723 85.0037 63.3702 84.9968C63.3681 84.9899 63.3676 84.9825 63.3688 84.9754C63.3688 84.9408 63.5468 84.1123 63.9368 84.1676C64.0348 84.1814 64.0628 84.2389 64.0668 84.2826C64.0928 84.4944 63.6328 84.9178 63.4148 85.0191L63.4028 85.0145ZM63.9008 84.232C63.6488 84.232 63.5008 84.713 63.4528 84.9063C63.6888 84.7636 64.0168 84.4184 64.0008 84.2849C64.0008 84.2849 64.0008 84.2435 63.9288 84.2343L63.9008 84.232Z" fill="#407BFF"/>
                            <path d="M66.5322 26.8055L66.8342 26.6265C66.8342 26.6265 66.7182 26.9523 66.5322 26.8055Z" fill="#263238"/>
                            <path d="M24.7085 27.2816C26.4816 25.2378 28.5886 23.6169 30.9085 22.5122C33.2284 21.4076 35.7154 20.8409 38.2265 20.8447H40.9325C40.9325 20.8447 53.6985 24.6862 53.6985 40.4059C53.6985 55.7717 44.8605 69.3719 40.9345 73.8915H38.2305L24.7085 58.3487C21.1264 54.2277 19.1143 48.6406 19.1143 42.8152C19.1143 36.9897 21.1264 31.4026 24.7085 27.2816ZM38.2285 53.0291C39.9841 53.0291 41.7003 52.4307 43.1599 51.3095C44.6196 50.1884 45.7573 48.5948 46.429 46.7304C47.1008 44.8661 47.2764 42.8146 46.9338 40.8354C46.5912 38.8563 45.7456 37.0384 44.5041 35.6116C43.2625 34.1849 41.6808 33.2134 39.9589 32.82C38.237 32.4266 36.4523 32.629 34.8304 33.4015C33.2086 34.1741 31.8225 35.4821 30.8474 37.1602C29.8723 38.8383 29.3521 40.811 29.3525 42.829C29.3573 45.5312 30.2945 48.121 31.9586 50.0298C33.6226 51.9387 35.8776 53.0107 38.2285 53.0107V53.0291Z" fill="#263238"/>
                            <path d="M54.8026 26.8654C54.0111 25.9564 53.1548 25.1252 52.2426 24.3803L52.3566 24.1918C53.279 24.9446 54.1447 25.7851 54.9446 26.7045L54.8026 26.8654ZM51.0466 23.4814C50.5766 23.155 50.0886 22.8469 49.5986 22.5619L49.6866 22.355C50.1826 22.6377 50.6746 22.9481 51.1506 23.2745L51.0466 23.4814Z" fill="#407BFF"/>
                            <path opacity="0.2" d="M54.8026 26.8654C54.0111 25.9564 53.1548 25.1252 52.2426 24.3803L52.3566 24.1918C53.279 24.9446 54.1447 25.7851 54.9446 26.7045L54.8026 26.8654ZM51.0466 23.4814C50.5766 23.155 50.0886 22.8469 49.5986 22.5619L49.6866 22.355C50.1826 22.6377 50.6746 22.9481 51.1506 23.2745L51.0466 23.4814Z" fill="black"/>
                            <path d="M27.4132 27.2816C31.0203 23.2898 35.8459 21.0839 40.8528 21.138C45.8597 21.1921 50.6483 23.502 54.1894 27.5711C57.7306 31.6402 59.7415 37.1437 59.7901 42.8989C59.8387 48.654 57.921 54.2014 54.4492 58.3487L40.9352 73.8846L27.4132 58.3418C23.832 54.2217 21.8203 48.6358 21.8203 42.8117C21.8203 36.9876 23.832 31.4017 27.4132 27.2816ZM40.9332 53.0291C42.6888 53.0291 44.405 52.4307 45.8647 51.3095C47.3244 50.1883 48.462 48.5948 49.1338 46.7304C49.8055 44.866 49.9812 42.8145 49.6385 40.8354C49.2959 38.8562 48.4503 37.0383 47.2088 35.6116C45.9673 34.1849 44.3855 33.2134 42.6636 32.8199C40.9417 32.4265 39.157 32.6289 37.5351 33.4015C35.9133 34.174 34.5272 35.482 33.5521 37.1601C32.577 38.8382 32.0568 40.811 32.0572 42.8289C32.062 45.5312 32.9992 48.1209 34.6633 50.0298C36.3273 51.9386 38.5823 53.0107 40.9332 53.0107V53.0291Z" fill="#407BFF"/>
                            <path opacity="0.2" d="M27.4132 27.2816C31.0203 23.2898 35.8459 21.0839 40.8528 21.138C45.8597 21.1921 50.6483 23.502 54.1894 27.5711C57.7306 31.6402 59.7415 37.1437 59.7901 42.8989C59.8387 48.654 57.921 54.2014 54.4492 58.3487L40.9352 73.8846L27.4132 58.3418C23.832 54.2217 21.8203 48.6358 21.8203 42.8117C21.8203 36.9876 23.832 31.4017 27.4132 27.2816ZM40.9332 53.0291C42.6888 53.0291 44.405 52.4307 45.8647 51.3095C47.3244 50.1883 48.462 48.5948 49.1338 46.7304C49.8055 44.866 49.9812 42.8145 49.6385 40.8354C49.2959 38.8562 48.4503 37.0383 47.2088 35.6116C45.9673 34.1849 44.3855 33.2134 42.6636 32.8199C40.9417 32.4265 39.157 32.6289 37.5351 33.4015C35.9133 34.174 34.5272 35.482 33.5521 37.1601C32.577 38.8382 32.0568 40.811 32.0572 42.8289C32.062 45.5312 32.9992 48.1209 34.6633 50.0298C36.3273 51.9386 38.5823 53.0107 40.9332 53.0107V53.0291Z" fill="black"/>
                            <g style="mix-blend-mode:color-dodge" opacity="0.4">
                            <path d="M40.9325 72.641C40.9257 72.6409 40.919 72.6393 40.9128 72.6361C40.9066 72.6329 40.9011 72.6284 40.8965 72.6227L27.9405 57.7328C25.373 54.7804 23.6247 51.0192 22.9168 46.9248C22.2088 42.8304 22.5729 38.5867 23.9631 34.7302C25.3532 30.8736 27.707 27.5775 30.7268 25.2585C33.7465 22.9394 37.2967 21.7017 40.9285 21.7017C44.5602 21.7017 48.1104 22.9394 51.1302 25.2585C54.1499 27.5775 56.5037 30.8736 57.8939 34.7302C59.284 38.5867 59.6481 42.8304 58.9402 46.9248C58.2322 51.0192 56.4839 54.7804 53.9165 57.7328L40.9665 72.6158C40.9628 72.6227 40.9579 72.6285 40.952 72.6329C40.9461 72.6373 40.9394 72.6401 40.9325 72.641ZM40.9325 21.815C37.3205 21.8157 33.7899 23.0475 30.7869 25.3544C27.7839 27.6614 25.4435 30.9401 24.0615 34.7758C22.6795 38.6116 22.3179 42.8323 23.0226 46.9042C23.7273 50.9761 25.4666 54.7165 28.0205 57.6523L40.9405 72.5008L53.8545 57.6592C56.4081 54.7218 58.1467 50.98 58.8506 46.907C59.5545 42.8339 59.1921 38.6124 57.8091 34.7761C56.4261 30.9398 54.0846 27.6609 51.0807 25.3539C48.0767 23.0469 44.5452 21.8154 40.9325 21.815ZM40.9325 53.9994C39.0088 53.9994 37.1283 53.3437 35.5288 52.1152C33.9293 50.8866 32.6827 49.1405 31.9466 47.0976C31.2105 45.0547 31.018 42.8067 31.3935 40.6381C31.7689 38.4694 32.6954 36.4774 34.0558 34.914C35.4163 33.3506 37.1494 32.2861 39.0362 31.855C40.923 31.4239 42.8787 31.6456 44.6558 32.4921C46.433 33.3386 47.9518 34.7719 49.0203 36.6106C50.0888 38.4494 50.6589 40.611 50.6585 42.8222C50.6526 45.7843 49.6254 48.6229 47.8019 50.7158C45.9784 52.8088 43.5074 53.9855 40.9305 53.9879L40.9325 53.9994ZM40.9325 31.7577C39.0286 31.7577 37.1675 32.4066 35.5845 33.6224C34.0016 34.8382 32.7678 36.5662 32.0392 38.588C31.3106 40.6098 31.12 42.8345 31.4914 44.9808C31.8628 47.1271 32.7796 49.0986 34.1259 50.646C35.4721 52.1934 37.1873 53.2472 39.0545 53.6741C40.9218 54.1011 42.8573 53.882 44.6162 53.0445C46.3751 52.2071 47.8785 50.7889 48.9362 48.9693C49.9939 47.1498 50.5585 45.0106 50.5585 42.8222C50.5585 39.8863 49.5443 37.0704 47.739 34.9935C45.9336 32.9166 43.4847 31.7486 40.9305 31.7462L40.9325 31.7577Z" fill="#FAFAFA"/>
                            </g>
                            </svg>