<svg width="13" height="9" viewBox="0 0 13 9" fill="none" xmlns="http://www.w3.org/2000/svg">
<g clip-path="url(#clip0_0_433)">
<path d="M6.49477 1.28979C4.59093 1.28979 2.68668 1.2902 0.782845 1.28859C0.671717 1.28859 0.556925 1.28859 0.450274 1.26284C0.148639 1.19123 -0.0239558 0.920477 0.00291046 0.583344C0.0281484 0.262706 0.232088 0.044656 0.54227 0.0112646C0.617984 0.00281615 0.694512 0 0.770226 0C4.58849 0 8.40675 0 12.2246 0.000804613C12.326 0.000804613 12.4294 0.000804612 12.5279 0.0205176C12.8303 0.0804613 13.0172 0.349202 12.9988 0.683519C12.9809 1.01381 12.7774 1.24232 12.4648 1.27773C12.3793 1.28738 12.2926 1.28939 12.2063 1.28939C10.3024 1.2902 8.3982 1.28979 6.49436 1.28979H6.49477Z" fill="#041A40"/>
<path d="M6.50041 3.85453C7.76434 3.85453 9.02868 3.85372 10.2926 3.85574C10.3985 3.85574 10.508 3.85895 10.6093 3.8851C10.9118 3.96436 11.0754 4.22948 11.0457 4.57104C11.018 4.88926 10.8124 5.10168 10.4966 5.13427C10.4208 5.14191 10.3447 5.14432 10.2686 5.14432C7.75539 5.14473 5.24258 5.14513 2.72937 5.14352C2.61824 5.14352 2.50344 5.14271 2.39679 5.11656C2.09516 5.04294 1.92501 4.77299 1.95269 4.43506C1.97874 4.11522 2.18349 3.89838 2.4953 3.86539C2.5759 3.85694 2.65731 3.85493 2.73832 3.85493C3.99249 3.85413 5.24624 3.85453 6.50041 3.85453Z" fill="#041A40"/>
<path d="M6.49227 8.99881C5.85765 8.99881 5.22345 9.00162 4.58883 8.998C4.21474 8.99599 3.97091 8.81696 3.91351 8.51523C3.82518 8.05178 4.08937 7.71907 4.56604 7.71142C5.08871 7.70338 5.61179 7.70941 6.13446 7.70901C6.89078 7.70901 7.64711 7.7074 8.40343 7.70982C8.74862 7.71102 8.96559 7.83976 9.05677 8.09965C9.19029 8.48144 9.03804 8.99881 8.42623 8.99881C7.78144 8.99881 7.13706 8.99881 6.49227 8.99881Z" fill="#041A40"/>
</g>
<defs>
<clipPath id="clip0_0_433">
<rect width="13" height="9" fill="white"/>
</clipPath>
</defs>
</svg>
