<svg width="182" height="45" viewBox="0 0 182 45" fill="none" xmlns="http://www.w3.org/2000/svg">
<g clip-path="url(#clip0_1_421)">
<path d="M24.9949 0C26.2428 0.278139 27.5092 0.494063 28.7349 0.845397C37.2221 3.29009 42.7543 8.76505 44.8909 17.1861C46.8497 24.9081 44.9205 31.8799 39.4438 37.805C35.8371 41.7099 31.3381 44.0485 26.0836 44.7621C19.4072 45.6661 13.3973 43.957 8.19093 39.6714C3.89921 36.1361 1.3775 31.5908 0.407324 26.178C0.266612 25.3839 0.133306 24.586 0 23.7882C0 22.9355 0 22.0791 0 21.2264C0.0629501 21.0617 0.16293 20.9044 0.181445 20.736C0.418433 18.273 0.944252 15.8832 1.98108 13.6142C5.08415 6.82905 10.2572 2.50325 17.5742 0.688029C18.3888 0.486744 19.1887 0.230563 19.9959 0C21.6623 0 23.3286 0 24.9949 0ZM44.0873 22.6244C44.3058 11.1768 34.73 1.50049 22.962 1.47853C11.1274 1.46023 1.61078 10.6535 1.55154 22.3719C1.48859 34.3758 11.1644 43.4812 22.762 43.569C34.4782 43.6569 44.228 34.0025 44.091 22.6244H44.0873Z" fill="#AEB8C4"/>
<path d="M181.999 11.8943C181.877 12.1249 181.714 12.3444 181.644 12.5933C181.181 14.1999 179.696 15.3747 178.074 15.393C176.389 15.415 174.79 14.156 174.305 12.4323C173.89 10.9574 174.642 9.27759 176.115 8.38462C178.241 7.0964 180.966 8.187 181.648 10.5841C181.707 10.7927 181.881 10.972 182.003 11.1624V11.8943H181.999Z" fill="#E38338"/>
<path d="M128.207 23.7586C128.433 23.4402 128.688 23.1364 128.877 22.7998C131.125 18.7594 134.547 16.4428 139.234 16.3916C143.734 16.3403 147.218 18.3678 149.647 22.13C149.821 22.4008 149.992 22.6717 150.166 22.9461C150.258 22.9278 150.351 22.9095 150.447 22.8912C150.447 22.5875 150.447 22.2874 150.447 21.9836C150.436 20.6442 150.436 19.3011 150.41 17.9616C150.399 17.4749 150.536 17.2443 151.084 17.2443C157.749 17.2589 164.411 17.2553 171.076 17.2626C171.161 17.2626 171.25 17.3065 171.465 17.3651C171.465 18.7924 171.498 20.2416 171.439 21.6909C171.424 21.9983 171.102 22.324 170.865 22.5911C167.784 26.0423 164.692 29.4824 161.604 32.9262C161.486 33.058 161.382 33.2044 161.16 33.4935C161.571 33.5484 161.848 33.6106 162.122 33.6142C165.918 33.6472 169.713 33.6508 173.505 33.7167C174.313 33.7314 174.475 33.4496 174.472 32.7213C174.446 27.9051 174.475 23.0852 174.442 18.269C174.435 17.4749 174.635 17.2004 175.468 17.2333C177.13 17.2992 178.801 17.2626 180.463 17.2479C180.922 17.2479 181.219 17.3065 181.219 17.8811C181.204 25.1969 181.207 32.5163 181.2 39.8321C181.2 39.9456 181.148 40.0627 181.1 40.264C179.215 40.264 177.342 40.264 175.468 40.264C167.632 40.2566 159.797 40.231 151.962 40.2603C151.065 40.2603 150.917 39.9858 150.817 39.1441C150.54 36.8055 151.369 35.0818 153.021 33.4056C155.813 30.5694 158.357 27.4952 161 24.5162C161.115 24.3844 161.204 24.2307 161.4 23.9452H150.654C151.088 25.7715 151.639 27.5281 151.214 29.4751H134.306C134.269 31.4367 135.965 33.4276 137.968 33.8448C140.26 34.3242 142.245 33.8448 143.785 31.9893C143.9 31.8503 144.152 31.6892 144.296 31.7222C146.27 32.1613 148.24 32.6298 150.321 33.1202C149.61 34.9025 148.54 36.2529 147.185 37.3764C141.134 42.3866 132.417 40.608 128.818 33.6545C128.67 33.3727 128.403 33.1495 128.192 32.9006C127.978 31.5026 127.581 30.0972 127.596 28.6992C127.615 27.0524 127.989 25.4091 128.211 23.7659L128.207 23.7586ZM144.245 25.7056C143.837 23.4585 141.401 21.969 138.716 22.1593C136.909 22.2874 134.609 24.1026 134.702 25.7056H144.245Z" fill="#E38238"/>
<path d="M77.5397 29.5522C77.5582 31.8871 79.7245 33.9183 82.3165 34.0134C84.1606 34.0793 85.7825 33.5596 86.986 32.0665C87.1267 31.8945 87.4488 31.7188 87.6414 31.7627C89.5928 32.1836 91.5332 32.6484 93.4809 33.1022C92.4108 36.4838 88.0413 40.3374 82.3795 40.202C76.7066 40.0666 72.0631 36.0299 70.9929 30.383C69.9598 24.9483 73.0517 19.2867 78.2433 17.2299C81.5426 15.9234 84.8234 16.0918 88.0006 17.6581C91.1295 19.2025 93.118 21.746 94.3178 25.0288C95.2509 20.6005 97.4357 17.1055 101.724 15.4037C106.067 13.6763 110.059 14.5986 113.643 17.8814V15.2976H119.742V39.4847H113.729V37.0913C113.406 37.2816 113.218 37.3548 113.077 37.4792C108.507 41.6293 101.453 40.9742 97.3172 36.0263C95.8952 34.3245 94.9325 32.4105 94.5733 30.222C94.4955 29.7462 94.3696 29.4571 93.7809 29.4571C88.4449 29.479 83.109 29.4754 77.773 29.479C77.7138 29.479 77.6582 29.512 77.536 29.5486L77.5397 29.5522ZM113.98 27.1588C113.962 26.8916 113.955 26.4598 113.895 26.0389C113.521 23.4039 112.136 21.4569 109.6 20.5566C107.012 19.6417 104.542 19.9967 102.483 21.9656C100.679 23.693 100.205 25.8779 100.383 28.2567C100.728 32.835 105.123 35.7957 109.426 34.3575C112.255 33.4096 113.999 30.7124 113.98 27.1588ZM87.5007 25.6876C87.197 23.682 84.953 22.1157 82.5165 22.1449C80.2244 22.1706 78.1322 23.7516 77.8804 25.6876H87.5007Z" fill="black"/>
<path d="M51.2557 40.1658V7.37468C51.3334 7.31978 51.3816 7.25391 51.4297 7.25391C55.5215 7.38566 59.6317 7.31978 63.6976 7.71137C67.6264 8.08832 70.5036 11.2942 70.8517 15.1955C70.9628 16.4288 70.9405 17.7061 70.7369 18.9248C70.2185 22.0209 68.2374 23.9935 65.3972 25.2085C65.175 25.3037 64.9603 25.4135 64.6196 25.5708C67.2376 30.4346 69.8259 35.2508 72.4958 40.2134C70.2222 40.2134 68.1337 40.239 66.0489 40.1805C65.7971 40.1731 65.4824 39.7779 65.3269 39.4924C63.0681 35.335 60.8315 31.1666 58.5912 26.9981C58.5468 26.9176 58.5282 26.8115 58.4653 26.7566C58.2283 26.5663 57.9765 26.3906 57.7321 26.2113C57.6358 26.4675 57.4544 26.7237 57.4507 26.9798C57.4285 28.9927 57.4359 31.0019 57.4359 33.0147C57.4359 35.0861 57.4359 37.1612 57.4359 39.2326C57.4359 39.529 57.41 39.8255 57.3951 40.1658H51.252H51.2557ZM57.4396 16.6777C57.4396 17.6219 57.4063 18.5698 57.4655 19.5103C57.4803 19.7409 57.8062 20.1508 57.9802 20.1471C59.4873 20.1069 61.0166 20.1252 62.4867 19.858C64.2678 19.5359 65.0121 18.3612 64.9195 16.524C64.8381 14.8881 63.7198 13.5999 62.0831 13.4169C60.7982 13.2742 59.4984 13.2888 58.2098 13.2083C57.5766 13.168 57.4137 13.4571 57.4322 14.0281C57.4655 14.9101 57.4396 15.7957 57.4396 16.6814V16.6777Z" fill="black"/>
<path d="M128.208 23.7585C127.989 25.4017 127.611 27.045 127.593 28.6918C127.578 30.0899 127.974 31.4915 128.189 32.8932C128.189 35.294 128.189 37.6948 128.189 40.1541H122.135V6.47363H128.208V23.7549V23.7585Z" fill="#171C23"/>
<path d="M34.2667 12.1535C34.2038 12.3328 34.1112 12.6512 33.9816 12.955C30.7823 20.3074 27.5792 27.6598 24.365 35.0048C24.1984 35.3854 23.9985 35.8063 23.6874 36.0662C23.0579 36.5858 22.2321 36.2199 21.91 35.3013C21.1324 33.0908 20.3436 30.8803 19.6253 28.6479C19.3475 27.7879 18.955 27.2828 17.9812 27.0925C15.6261 26.6314 13.3043 26.0202 10.9604 25.5005C10.3605 25.3688 9.79023 25.1089 9.85688 24.4978C9.90873 24.0476 10.2827 23.473 10.6863 23.2461C17.8367 19.2314 25.0131 15.2606 32.1894 11.2825C33.3188 10.6567 34.2482 10.9897 34.2667 12.1572V12.1535Z" fill="#E38238"/>
</g>
<defs>
<clipPath id="clip0_1_421">
<rect width="182" height="45" fill="white"/>
</clipPath>
</defs>
</svg>
