<svg width="97" height="24" viewBox="0 0 97 24" fill="none" xmlns="http://www.w3.org/2000/svg">
<g id="Layer_1" clip-path="url(#clip0_1_270)">
<path id="Vector" d="M13.3215 0C13.9866 0.148341 14.6615 0.2635 15.3147 0.450878C19.8381 1.75472 22.7866 4.67469 23.9254 9.16591C24.9694 13.2843 23.9411 17.0026 21.0223 20.1627C19.1 22.2453 16.7022 23.4925 13.9017 23.8731C10.3434 24.3552 7.14031 23.4437 4.36549 21.1581C2.07815 19.2726 0.734161 16.8484 0.217091 13.9616C0.142096 13.5381 0.0710478 13.1126 0 12.6871C0 12.2323 0 11.7755 0 11.3208C0.0335504 11.2329 0.0868362 11.149 0.096704 11.0592C0.223011 9.74561 0.503255 8.47105 1.05585 7.2609C2.70968 3.64216 5.46673 1.33507 9.36647 0.366949C9.80065 0.259597 10.2269 0.122967 10.6572 0C11.5453 0 12.4334 0 13.3215 0ZM23.4971 12.0664C23.6135 5.96096 18.5099 0.80026 12.238 0.788549C5.93052 0.77879 0.858494 5.68185 0.826918 11.9317C0.793367 18.3338 5.95025 23.19 12.1314 23.2368C18.3757 23.2837 23.5721 18.1347 23.4991 12.0664H23.4971Z" fill="white"/>
<path id="Vector_2" d="M97.0003 6.34359C96.9351 6.46656 96.8483 6.58367 96.8108 6.7164C96.5641 7.57326 95.7727 8.19981 94.9083 8.20957C94.0103 8.22128 93.1577 7.54984 92.8992 6.63052C92.6782 5.84392 93.0788 4.94802 93.8643 4.47177C94.9971 3.78471 96.4496 4.36637 96.8128 5.64483C96.8443 5.75609 96.9371 5.85173 97.0022 5.95322V6.34359H97.0003Z" fill="white"/>
<path id="Vector_3" d="M68.3298 12.6715C68.4501 12.5017 68.5863 12.3397 68.687 12.1601C69.8849 10.0053 71.7085 8.76977 74.207 8.74245C76.6049 8.71512 78.462 9.79645 79.7566 11.803C79.8494 11.9474 79.9402 12.0918 80.0329 12.2382C80.0823 12.2285 80.1316 12.2187 80.1829 12.2089C80.1829 12.0469 80.1829 11.8869 80.1829 11.7249C80.177 11.0105 80.177 10.2942 80.1632 9.57979C80.1572 9.3202 80.2303 9.19723 80.5224 9.19723C84.0747 9.20504 87.6252 9.20309 91.1776 9.20699C91.2229 9.20699 91.2703 9.23041 91.3848 9.26164C91.3848 10.0229 91.4025 10.7958 91.371 11.5687C91.3631 11.7327 91.1914 11.9064 91.0651 12.0489C89.4231 13.8895 87.7752 15.7242 86.1292 17.5609C86.0661 17.6312 86.0108 17.7093 85.8924 17.8635C86.1114 17.8927 86.2595 17.9259 86.4055 17.9279C88.4284 17.9454 90.4513 17.9474 92.4722 17.9825C92.9024 17.9903 92.9893 17.84 92.9873 17.4516C92.9735 14.883 92.9893 12.3124 92.9715 9.74375C92.9676 9.3202 93.0741 9.17381 93.5182 9.19138C94.4043 9.22651 95.2944 9.20699 96.1805 9.19918C96.4252 9.19918 96.5831 9.23041 96.5831 9.53685C96.5752 13.4386 96.5772 17.3423 96.5732 21.2441C96.5732 21.3046 96.5456 21.367 96.52 21.4744C95.5154 21.4744 94.5168 21.4744 93.5182 21.4744C89.3421 21.4705 85.1661 21.4568 80.9901 21.4724C80.5125 21.4724 80.4335 21.3261 80.3803 20.8771C80.2322 19.6299 80.6743 18.7106 81.5545 17.8166C83.0426 16.3039 84.3984 14.6644 85.8075 13.0756C85.8687 13.0053 85.9161 12.9233 86.0207 12.7711H80.2934C80.5243 13.7451 80.8184 14.6819 80.5914 15.7203H71.5802C71.5605 16.7665 72.4643 17.8283 73.532 18.0508C74.7537 18.3065 75.8115 18.0508 76.6325 17.0613C76.6937 16.9871 76.8279 16.9012 76.9048 16.9188C77.9567 17.153 79.0067 17.4028 80.1158 17.6644C79.7369 18.6149 79.1665 19.3352 78.4442 19.9344C75.2194 22.6065 70.5737 21.6579 68.6554 17.9493C68.5765 17.7991 68.4344 17.68 68.3219 17.5473C68.2074 16.8017 67.9962 16.0521 68.0041 15.3065C68.014 14.4282 68.2133 13.5518 68.3317 12.6754L68.3298 12.6715ZM76.8772 13.7099C76.6601 12.5115 75.3615 11.7171 73.9307 11.8186C72.9676 11.8869 71.742 12.855 71.7914 13.7099H76.8772Z" fill="white"/>
<path id="Vector_4" d="M41.3261 15.7613C41.336 17.0066 42.4905 18.0899 43.872 18.1406C44.8548 18.1758 45.7192 17.8986 46.3606 17.1023C46.4356 17.0105 46.6073 16.9168 46.7099 16.9403C47.75 17.1647 48.7841 17.4126 49.8222 17.6546C49.2519 19.4581 46.9231 21.5135 43.9055 21.4412C40.882 21.369 38.4072 19.2161 37.8369 16.2044C37.2862 13.3059 38.9341 10.2864 41.7011 9.18944C43.4595 8.49263 45.2081 8.58242 46.9014 9.41781C48.569 10.2415 49.6288 11.598 50.2682 13.3488C50.7656 10.9871 51.93 9.12308 54.2153 8.21547C56.5303 7.29419 58.6578 7.78606 60.5682 9.53687V8.15886H63.8186V21.0587H60.6136V19.7822C60.4419 19.8837 60.3412 19.9227 60.2663 19.9891C57.8309 22.2025 54.0713 21.8531 51.8668 19.2142C51.109 18.3066 50.5959 17.2857 50.4044 16.1185C50.363 15.8648 50.2959 15.7106 49.9821 15.7106C47.1382 15.7223 44.2943 15.7203 41.4504 15.7223C41.4188 15.7223 41.3892 15.7399 41.3241 15.7594L41.3261 15.7613ZM60.7478 14.4848C60.7379 14.3423 60.734 14.112 60.7024 13.8876C60.5031 12.4822 59.765 11.4438 58.4131 10.9637C57.0336 10.4757 55.7172 10.665 54.6199 11.7151C53.6588 12.6364 53.4062 13.8017 53.5009 15.0704C53.6845 17.5121 56.0271 19.0912 58.3203 18.3241C59.8281 17.8186 60.7577 16.3801 60.7478 14.4848ZM46.6349 13.7002C46.4731 12.6306 45.2771 11.7952 43.9785 11.8108C42.7569 11.8244 41.6419 12.6676 41.5077 13.7002H46.6349Z" fill="white"/>
<path id="Vector_5" d="M27.3174 21.4217V3.93306C27.3588 3.90379 27.3845 3.86865 27.4102 3.86865C29.5909 3.93892 31.7816 3.90379 33.9485 4.11263C36.0425 4.31368 37.5759 6.0235 37.7614 8.10418C37.8206 8.76195 37.8088 9.44315 37.7003 10.0931C37.424 11.7444 36.3681 12.7964 34.8544 13.4444C34.736 13.4952 34.6215 13.5538 34.4399 13.6377C35.8352 16.2317 37.2148 18.8003 38.6377 21.4471C37.4259 21.4471 36.3128 21.4607 35.2017 21.4295C35.0675 21.4256 34.8998 21.2148 34.8169 21.0625C33.613 18.8452 32.421 16.6221 31.227 14.3989C31.2033 14.356 31.1935 14.2994 31.1599 14.2701C31.0336 14.1686 30.8994 14.0749 30.7691 13.9793C30.7178 14.1159 30.6211 14.2525 30.6192 14.3891C30.6073 15.4627 30.6113 16.5342 30.6113 17.6078C30.6113 18.7125 30.6113 19.8192 30.6113 20.924C30.6113 21.0821 30.5974 21.2402 30.5895 21.4217H27.3154H27.3174ZM30.6132 8.89468C30.6132 9.39826 30.5955 9.90379 30.627 10.4054C30.6349 10.5284 30.8086 10.747 30.9014 10.745C31.7046 10.7236 32.5197 10.7333 33.3032 10.5908C34.2525 10.4191 34.6491 9.79253 34.5998 8.8127C34.5564 7.94022 33.9604 7.25317 33.0881 7.15558C32.4032 7.07945 31.7105 7.08726 31.0237 7.04432C30.6863 7.02285 30.5994 7.17705 30.6093 7.48154C30.627 7.95193 30.6132 8.42428 30.6132 8.89663V8.89468Z" fill="white"/>
<path id="Vector_6" d="M68.3301 12.6715C68.2137 13.5479 68.0124 14.4243 68.0025 15.3026C67.9946 16.0482 68.2058 16.7958 68.3203 17.5433C68.3203 18.8237 68.3203 20.1042 68.3203 21.4158H65.0935V3.45288H68.3301V12.6695V12.6715Z" fill="white"/>
<path id="Vector_7" d="M18.2635 6.48211C18.2299 6.57775 18.1806 6.74756 18.1115 6.90957C16.4063 10.8308 14.6992 14.7521 12.9862 18.6695C12.8974 18.8725 12.7908 19.0969 12.625 19.2355C12.2895 19.5127 11.8494 19.3175 11.6777 18.8276C11.2633 17.6487 10.8429 16.4697 10.46 15.2791C10.312 14.8204 10.1028 14.5511 9.58378 14.4496C8.3286 14.2036 7.09119 13.8777 5.84193 13.6005C5.52222 13.5303 5.21829 13.3917 5.25381 13.0657C5.28144 12.8256 5.48077 12.5192 5.69589 12.3982C9.50681 10.257 13.3316 8.13924 17.1563 6.01757C17.7582 5.6838 18.2536 5.86142 18.2635 6.48406V6.48211Z" fill="white"/>
</g>
<defs>
<clipPath id="clip0_1_270">
<rect width="97" height="24" fill="white"/>
</clipPath>
</defs>
</svg>
