<svg width="121" height="31" viewBox="0 0 121 31" fill="none" xmlns="http://www.w3.org/2000/svg">
<g clip-path="url(#clip0_1_2299)">
<path d="M16.6175 0C17.4471 0.191607 18.2891 0.340355 19.104 0.582384C24.7465 2.26651 28.4245 6.03814 29.845 11.8393C31.1473 17.1589 29.8647 21.9617 26.2236 26.0434C23.8258 28.7335 20.8346 30.3445 17.3413 30.8361C12.9026 31.4588 8.90698 30.2815 5.44562 27.3292C2.59233 24.8938 0.915809 21.7625 0.270804 18.0338C0.177253 17.4867 0.0886266 16.9371 0 16.3874C0 15.8 0 15.2101 0 14.6226C0.0418515 14.5092 0.108321 14.4008 0.120631 14.2848C0.278189 12.5881 0.627772 10.9418 1.31709 9.37866C3.38012 4.70446 6.81933 1.72446 11.6839 0.473975C12.2256 0.335312 12.7573 0.158832 13.294 0C14.4018 0 15.5097 0 16.6175 0ZM29.3108 15.5857C29.456 7.69958 23.0897 1.03367 15.2659 1.01854C7.39786 1.00594 1.07091 7.33905 1.03152 15.4118C0.989664 23.6811 7.42248 29.9537 15.133 30.0142C22.9223 30.0747 29.4044 23.424 29.3133 15.5857H29.3108Z" fill="white"/>
<path d="M121 8.19371C120.919 8.35254 120.811 8.50381 120.764 8.67525C120.456 9.78203 119.469 10.5913 118.391 10.6039C117.27 10.619 116.207 9.75177 115.884 8.56432C115.609 7.54829 116.108 6.39109 117.088 5.77593C118.501 4.88849 120.313 5.63979 120.766 7.29114C120.806 7.43484 120.921 7.55838 121.003 7.68948V8.19371H121Z" fill="#EC7100"/>
<path d="M85.2366 16.3672C85.3867 16.1479 85.5566 15.9386 85.6822 15.7067C87.1765 12.9233 89.4512 11.3275 92.568 11.2922C95.5591 11.2569 97.8757 12.6536 99.4907 15.2453C99.6064 15.4319 99.7196 15.6184 99.8353 15.8075C99.8969 15.7949 99.9584 15.7823 100.022 15.7697C100.022 15.5605 100.022 15.3537 100.022 15.1445C100.015 14.2217 100.015 13.2965 99.9978 12.3737C99.9904 12.0384 100.082 11.8796 100.446 11.8796C104.877 11.8897 109.306 11.8871 113.737 11.8922C113.794 11.8922 113.853 11.9224 113.996 11.9628C113.996 12.946 114.018 13.9444 113.979 14.9428C113.969 15.1546 113.755 15.3789 113.597 15.563C111.549 17.9404 109.493 20.3103 107.44 22.6827C107.361 22.7735 107.292 22.8743 107.145 23.0735C107.418 23.1113 107.602 23.1541 107.785 23.1567C110.308 23.1794 112.831 23.1819 115.352 23.2273C115.889 23.2373 115.997 23.0432 115.995 22.5415C115.978 19.2237 115.997 15.9033 115.975 12.5855C115.97 12.0384 116.103 11.8493 116.657 11.872C117.763 11.9174 118.873 11.8922 119.978 11.8821C120.283 11.8821 120.48 11.9224 120.48 12.3183C120.471 17.358 120.473 22.4003 120.468 27.4401C120.468 27.5182 120.434 27.5989 120.402 27.7376C119.149 27.7376 117.903 27.7376 116.657 27.7376C111.448 27.7325 106.239 27.7149 101.029 27.7351C100.434 27.7351 100.335 27.546 100.269 26.9661C100.084 25.3551 100.635 24.1676 101.733 23.013C103.59 21.0591 105.281 18.9413 107.039 16.8891C107.115 16.7983 107.174 16.6924 107.305 16.4958H100.16C100.448 17.7539 100.815 18.964 100.532 20.3053H89.2912C89.2666 21.6566 90.3941 23.0281 91.726 23.3155C93.2499 23.6458 94.5694 23.3155 95.5936 22.0373C95.6699 21.9415 95.8373 21.8305 95.9333 21.8532C97.2455 22.1558 98.5552 22.4785 99.9387 22.8163C99.4661 24.0441 98.7546 24.9744 97.8535 25.7484C93.8309 29.1999 88.0357 27.9746 85.6428 23.1844C85.5443 22.9903 85.367 22.8365 85.2267 22.665C85.0839 21.702 84.8205 20.7338 84.8303 19.7708C84.8427 18.6363 85.0913 17.5043 85.239 16.3723L85.2366 16.3672ZM95.8988 17.7085C95.628 16.1605 94.0081 15.1344 92.2233 15.2655C91.0219 15.3537 89.4931 16.6042 89.5546 17.7085H95.8988Z" fill="#EC7100"/>
<path d="M51.5515 20.3583C51.5638 21.9668 53.004 23.366 54.7273 23.4315C55.9533 23.4769 57.0316 23.1189 57.8317 22.0903C57.9252 21.9718 58.1394 21.8508 58.2674 21.881C59.5648 22.171 60.8548 22.4911 62.1497 22.8038C61.4383 25.1333 58.5333 27.7881 54.7691 27.6948C50.9976 27.6015 47.9104 24.8207 47.1989 20.9306C46.5121 17.1867 48.5677 13.2864 52.0192 11.8696C54.2127 10.9695 56.3939 11.0855 58.5062 12.1645C60.5865 13.2285 61.9085 14.9807 62.7061 17.2421C63.3265 14.1915 64.779 11.7838 67.6298 10.6115C70.5176 9.42153 73.1715 10.0569 75.5545 12.3183V10.5384H79.6092V27.2006H75.6112V25.5518C75.397 25.6829 75.2714 25.7333 75.1779 25.8191C72.1399 28.678 67.4501 28.2268 64.7002 24.8182C63.7549 23.6458 63.1148 22.3273 62.876 20.8196C62.8243 20.4919 62.7406 20.2927 62.3492 20.2927C58.8016 20.3078 55.2541 20.3053 51.7066 20.3078C51.6672 20.3078 51.6303 20.3305 51.549 20.3557L51.5515 20.3583ZM75.7786 18.7094C75.7662 18.5254 75.7613 18.2279 75.7219 17.938C75.4733 16.1227 74.5526 14.7815 72.8662 14.1613C71.1454 13.531 69.5033 13.7756 68.1345 15.1319C66.9356 16.3219 66.6205 17.827 66.7386 19.4658C66.9676 22.6197 69.8898 24.6593 72.7505 23.6685C74.6313 23.0155 75.7909 21.1575 75.7786 18.7094ZM58.1739 17.6959C57.972 16.3143 56.4801 15.2353 54.8602 15.2555C53.3363 15.2731 51.9454 16.3622 51.778 17.6959H58.1739Z" fill="white"/>
<path d="M34.0769 27.6696V5.08015C34.1286 5.04233 34.1606 4.99695 34.1926 4.99695C36.913 5.08771 39.6456 5.04233 42.3487 5.31209C44.9608 5.57177 46.8736 7.78029 47.105 10.4678C47.1789 11.3175 47.1641 12.1973 47.0287 13.0369C46.6841 15.1698 45.367 16.5287 43.4787 17.3657C43.331 17.4312 43.1882 17.5069 42.9617 17.6153C44.7023 20.9659 46.4231 24.2837 48.1981 27.7024C46.6865 27.7024 45.298 27.72 43.912 27.6797C43.7446 27.6746 43.5354 27.4024 43.432 27.2057C41.9302 24.3417 40.4433 21.4701 38.9539 18.5985C38.9243 18.5431 38.912 18.4699 38.8701 18.4321C38.7126 18.301 38.5452 18.18 38.3827 18.0565C38.3187 18.233 38.1981 18.4094 38.1956 18.5859C38.1808 19.9726 38.1858 21.3567 38.1858 22.7433C38.1858 24.1703 38.1858 25.5997 38.1858 27.0267C38.1858 27.2309 38.1685 27.4351 38.1587 27.6696H34.0745H34.0769ZM38.1882 11.4889C38.1882 12.1394 38.1661 12.7923 38.2054 13.4403C38.2153 13.5991 38.4319 13.8815 38.5476 13.8789C39.5496 13.8512 40.5664 13.8638 41.5437 13.6798C42.7279 13.4579 43.2227 12.6486 43.1612 11.383C43.107 10.2561 42.3635 9.36861 41.2754 9.24256C40.4211 9.14423 39.557 9.15432 38.7003 9.09885C38.2793 9.07112 38.171 9.27029 38.1833 9.66359C38.2055 10.2712 38.1882 10.8813 38.1882 11.4914V11.4889Z" fill="white"/>
<path d="M85.2367 16.3673C85.0914 17.4993 84.8403 18.6313 84.828 19.7658C84.8181 20.7289 85.0816 21.6945 85.2243 22.6601C85.2243 24.314 85.2243 25.9678 85.2243 27.6621H81.1992V4.45996H85.2367V16.3648V16.3673Z" fill="white"/>
<path d="M22.7819 8.37274C22.74 8.49627 22.6785 8.71561 22.5923 8.92487C20.4653 13.9898 18.3358 19.0548 16.1989 24.1148C16.0881 24.377 15.9552 24.6669 15.7484 24.8459C15.3298 25.2039 14.7809 24.9518 14.5667 24.319C14.0497 22.7962 13.5253 21.2734 13.0477 19.7355C12.8631 19.1431 12.6021 18.7952 11.9546 18.6641C10.3889 18.3464 8.84533 17.9254 7.28697 17.5674C6.88815 17.4766 6.50903 17.2976 6.55334 16.8766C6.58781 16.5665 6.83646 16.1706 7.1048 16.0143C11.8586 13.2486 16.6297 10.5132 21.4008 7.7727C22.1516 7.34159 22.7696 7.57101 22.7819 8.37526V8.37274Z" fill="#EC7100"/>
</g>
<defs>
<clipPath id="clip0_1_2299">
<rect width="121" height="31" fill="white"/>
</clipPath>
</defs>
</svg>
