<svg width="33" height="28" viewBox="0 0 33 28" fill="none" xmlns="http://www.w3.org/2000/svg">
<path d="M16.8919 26.2071L16.8923 26.2081C17.0029 26.4728 17.1779 26.61 17.3195 26.6616C17.4502 26.7093 17.5815 26.6993 17.713 26.6092C17.8931 26.4818 18.0573 26.2354 18.2806 25.8073C22.4659 17.7822 26.6367 9.74888 30.8031 1.71496C30.8677 1.58754 30.927 1.44938 30.9832 1.30963C31.0048 1.25587 31.0249 1.20436 31.0449 1.15312C31.0331 1.10801 31.0195 1.08622 31.0148 1.07943L31.0148 1.0794C31.0091 1.07118 30.995 1.05071 30.9345 1.03033C30.781 0.97859 30.3904 0.962651 29.78 1.24646L29.7798 1.24654C20.4324 5.5904 11.0879 9.93288 1.77759 14.3231L16.8919 26.2071ZM16.8919 26.2071C16.7654 25.9054 16.6388 25.6041 16.5124 25.3031C15.6234 23.1864 14.7406 21.0844 13.9275 18.9642L13.9271 18.9631M16.8919 26.2071L13.9271 18.9631M13.9271 18.9631C13.7146 18.4109 13.4187 17.8671 12.9103 17.4355M13.9271 18.9631L12.9103 17.4355M1.88911 14.8991L1.89077 14.8994C3.07843 15.1203 4.24448 15.3527 5.40304 15.5836C7.27314 15.9562 9.12373 16.325 11.0142 16.6356L1.88911 14.8991ZM1.88911 14.8991C1.72116 14.8681 1.57264 14.8327 1.44769 14.7925M1.88911 14.8991L1.44769 14.7925M12.9103 17.4355C12.3994 17.0019 11.7661 16.7589 11.0145 16.6356L12.9103 17.4355ZM1.44769 14.7925C1.40637 14.7792 1.37015 14.7662 1.33862 14.7538M1.44769 14.7925L1.33862 14.7538M1.33862 14.7538C1.36258 14.7142 1.39154 14.6719 1.42541 14.6288C1.54864 14.4719 1.68584 14.3665 1.77747 14.3232L1.33862 14.7538ZM1.17731 14.6712C1.17733 14.6712 1.17768 14.6715 1.17834 14.6721L1.17731 14.6712Z" stroke="#E38238" stroke-width="2"/>
</svg>
