<svg width="78" height="29" viewBox="0 0 78 29" fill="none" xmlns="http://www.w3.org/2000/svg">
<rect x="0.5" y="0.5" width="77" height="28" rx="6.5" fill="#F7F9FF"/>
<rect x="0.5" y="0.5" width="77" height="28" rx="6.5" stroke="#A8A9A9"/>
<g clip-path="url(#clip0_1_347)">
<path d="M17.0004 18.7001L12.8004 14.5001L11.4004 15.9001L17.0004 21.5001L29.0004 9.5001L27.6004 8.1001L17.0004 18.7001Z" fill="#109904"/>
</g>
<path d="M38.05 20.5V11.4H41.445C42.215 11.4 42.8333 11.5089 43.3 11.7267C43.7667 11.9444 44.105 12.2361 44.315 12.6017C44.525 12.9672 44.63 13.3756 44.63 13.8267C44.63 14.4178 44.4628 14.9156 44.1283 15.32C43.8017 15.7244 43.3156 16.0044 42.67 16.16L44.8867 20.43V20.5H43.51L41.375 16.335H39.3333V20.5H38.05ZM39.3333 15.3317H41.3633C42.0633 15.3317 42.5611 15.2072 42.8567 14.9583C43.1522 14.7017 43.3 14.3439 43.3 13.885C43.3 13.4183 43.1522 13.0644 42.8567 12.8233C42.5611 12.5744 42.0633 12.45 41.3633 12.45H39.3333V15.3317ZM46.2121 20.5V11.4H52.0454V12.4967H47.5188V15.075H51.0888V16.125H47.5188V19.4033H52.1154V20.5H46.2121ZM53.8 20.5V11.4H57.195C57.965 11.4 58.5833 11.5089 59.05 11.7267C59.5167 11.9444 59.855 12.2361 60.065 12.6017C60.275 12.9672 60.38 13.3756 60.38 13.8267C60.38 14.4178 60.2128 14.9156 59.8783 15.32C59.5517 15.7244 59.0656 16.0044 58.42 16.16L60.6367 20.43V20.5H59.26L57.125 16.335H55.0833V20.5H53.8ZM55.0833 15.3317H57.1133C57.8133 15.3317 58.3111 15.2072 58.6067 14.9583C58.9022 14.7017 59.05 14.3439 59.05 13.885C59.05 13.4183 58.9022 13.0644 58.6067 12.8233C58.3111 12.5744 57.8133 12.45 57.1133 12.45H55.0833V15.3317ZM61.0988 20.5V20.43L64.0621 11.4H66.1621L69.1254 20.43V20.5H67.7604L65.2054 12.415H64.9254L62.3704 20.5H61.0988ZM63.0238 17.8517L63.3854 16.755H66.7454L67.1071 17.8517H63.0238Z" fill="black"/>
<defs>
<clipPath id="clip0_1_347">
<rect width="24" height="24" fill="white" transform="translate(8 2.5)"/>
</clipPath>
</defs>
</svg>
