<svg width="32" height="28" viewBox="0 0 32 28" fill="none" xmlns="http://www.w3.org/2000/svg">
<path d="M16.66 26.2064L16.6604 26.2074C16.7711 26.4718 16.9465 26.6094 17.0894 26.6614C17.2215 26.7095 17.3544 26.6993 17.4869 26.6086C17.6677 26.4811 17.8322 26.2346 18.056 25.8066C22.2497 17.7815 26.4291 9.74813 30.604 1.7142C30.6687 1.58682 30.7281 1.4487 30.7844 1.30898C30.806 1.25541 30.8261 1.20407 30.8461 1.15301C30.8343 1.10845 30.8208 1.08693 30.8161 1.08021C30.8105 1.07198 30.7961 1.05117 30.7347 1.03052C30.5796 0.978343 30.1871 0.962814 29.5751 1.24679L29.5749 1.24687C20.2083 5.59074 10.8447 9.93325 1.51543 14.3235C1.42313 14.3669 1.28542 14.4726 1.16189 14.6296C1.12826 14.6723 1.09946 14.7142 1.07559 14.7535C1.10729 14.7659 1.1437 14.779 1.18525 14.7923C1.31064 14.8326 1.45963 14.8681 1.62803 14.899L1.62969 14.8993C2.81966 15.1203 3.98804 15.3526 5.14895 15.5835C7.02295 15.9561 8.87746 16.3249 10.7718 16.6355L16.66 26.2064ZM16.66 26.2064C16.5332 25.9047 16.4064 25.6034 16.2797 25.3023C15.3889 23.1857 14.5043 21.0837 13.6896 18.9636L13.6892 18.9625M16.66 26.2064L13.6892 18.9625M13.6892 18.9625C13.4762 18.4101 13.1796 17.8663 12.6703 17.4348M13.6892 18.9625L12.6703 17.4348M12.6703 17.4348C12.1588 17.0015 11.5248 16.7588 10.7721 16.6356L12.6703 17.4348ZM0.913404 14.6705C0.913418 14.6705 0.913777 14.6708 0.914441 14.6714L0.913404 14.6705Z" stroke="#E38238" stroke-width="2"/>
</svg>
