<svg width="24" height="25" viewBox="0 0 24 25" fill="none" xmlns="http://www.w3.org/2000/svg">
<path d="M23.2015 0.538393C23.321 0.586579 23.4715 0.71704 23.4967 1.09363C23.4844 1.1307 23.4719 1.16897 23.4591 1.20831C23.4044 1.37665 23.3433 1.56442 23.2602 1.76008C20.1156 9.01533 16.9674 16.2703 13.8084 23.518C13.639 23.9064 13.4825 24.2111 13.2804 24.3812C13.1155 24.5173 12.9587 24.5251 12.8136 24.4618C12.6488 24.3899 12.4488 24.1986 12.3254 23.8455L12.3252 23.845C12.2299 23.573 12.1345 23.3011 12.0391 23.0294C11.3684 21.1187 10.6996 19.2134 10.0836 17.2917L10.0835 17.2912C9.93655 16.8344 9.7416 16.4126 9.41234 16.0782C9.07535 15.7359 8.63984 15.527 8.0878 15.4187C6.65904 15.1378 5.25645 14.8035 3.8423 14.4663C2.96844 14.258 2.09017 14.0486 1.19858 13.8502L1.19761 13.8499C0.923335 13.7895 0.721746 13.7116 0.60376 13.6223C0.550538 13.5819 0.527087 13.5487 0.515983 13.5253C0.506367 13.505 0.495202 13.4701 0.50215 13.4041C0.516612 13.2813 0.582904 13.103 0.70123 12.9228C0.8201 12.7417 0.957531 12.6103 1.06634 12.5488C7.30953 9.02964 13.5729 5.54462 19.8398 2.05757C20.6269 1.61966 21.4139 1.18172 22.201 0.743668C22.6905 0.471382 23.0299 0.469189 23.2015 0.538393Z" stroke="#EC7100"/>
</svg>
